<svg width="45" height="30" viewBox="0 0 45 30" fill="none" xmlns="http://www.w3.org/2000/svg">
<path d="M9 16.1538C9 18.7028 6.98527 20.7692 4.5 20.7692C2.01473 20.7692 0 18.7028 0 16.1538C0 13.6049 2.01473 11.5385 4.5 11.5385C6.98527 11.5385 9 13.6049 9 16.1538ZM4.5 25.3846C3.25737 25.3846 2.25 26.4178 2.25 27.6923C2.25 28.9668 3.25737 30 4.5 30C5.74263 30 6.75 28.9668 6.75 27.6923C6.75 26.4178 5.74263 25.3846 4.5 25.3846ZM4.5 0C2.01473 0 0 2.06639 0 4.61538C0 7.16437 2.01473 9.23077 4.5 9.23077C6.98527 9.23077 9 7.16437 9 4.61538C9 2.06639 6.98527 0 4.5 0ZM15.75 13.8462C14.5074 13.8462 13.5 14.8794 13.5 16.1538C13.5 17.4283 14.5074 18.4615 15.75 18.4615C16.9926 18.4615 18 17.4283 18 16.1538C18 14.8794 16.9926 13.8462 15.75 13.8462ZM15.75 25.3846C14.5074 25.3846 13.5 26.4178 13.5 27.6923C13.5 28.9668 14.5074 30 15.75 30C16.9926 30 18 28.9668 18 27.6923C18 26.4178 16.9926 25.3846 15.75 25.3846ZM15.75 0C13.2647 0 11.25 2.06639 11.25 4.61538C11.25 7.16437 13.2647 9.23077 15.75 9.23077C18.2353 9.23077 20.25 7.16437 20.25 4.61538C20.25 2.06639 18.2353 0 15.75 0ZM31.5 13.8462C30.2574 13.8462 29.25 14.8794 29.25 16.1538C29.25 17.4283 30.2574 18.4615 31.5 18.4615C32.7426 18.4615 33.75 17.4283 33.75 16.1538C33.75 14.8794 32.7426 13.8462 31.5 13.8462ZM31.5 25.3846C30.2574 25.3846 29.25 26.4178 29.25 27.6923C29.25 28.9668 30.2574 30 31.5 30C32.7426 30 33.75 28.9668 33.75 27.6923C33.75 26.4178 32.7426 25.3846 31.5 25.3846ZM31.5 0C29.0147 0 27 2.06639 27 4.61538C27 7.16437 29.0147 9.23077 31.5 9.23077C33.9853 9.23077 36 7.16437 36 4.61538C36 2.06639 33.9853 0 31.5 0ZM42.75 13.8462C41.5074 13.8462 40.5 14.8794 40.5 16.1538C40.5 17.4283 41.5074 18.4615 42.75 18.4615C43.9926 18.4615 45 17.4283 45 16.1538C45 14.8794 43.9926 13.8462 42.75 13.8462ZM42.75 25.3846C41.5074 25.3846 40.5 26.4178 40.5 27.6923C40.5 28.9668 41.5074 30 42.75 30C43.9926 30 45 28.9668 45 27.6923C45 26.4178 43.9926 25.3846 42.75 25.3846ZM42.75 2.30769C41.5074 2.30769 40.5 3.34089 40.5 4.61538C40.5 5.88988 41.5074 6.92308 42.75 6.92308C43.9926 6.92308 45 5.88988 45 4.61538C45 3.34089 43.9926 2.30769 42.75 2.30769Z" fill="#009EFF"/>
</svg>
