<svg enable-background="new 0 0 841.89 595.28" height="265.900592" viewBox="0 0 841.89 595.28" width="376.080396" xmlns="http://www.w3.org/2000/svg"><path d="m112.36 410.34c-.87 14.36-4.07 20.47-17.29 20.47-9.75-.25-6.19-.25-15.94-.21-2.46.01-3.57-.52-3.54-3.11.27-25.46-1.29-51.02 1.83-76.33 3.56-28.85 23.78-46.93 54.36-50.97 6.52-.86 13.03-1.3 19.61-1.23 2.6.03 3.9.44 3.82 3.39-.26 9.43-.33 18.87-.2 28.3.04 3.05-1.07 3.85-4.11 3.8-5.55-.1-11.09-.48-16.65.55-13.06 2.41-20.05 9.68-21.03 22.38-.19 2.44-.46 4.89-.48 7.33-.06 9.25-.02 18.5-.02 27.75"/><path d="m478.89 412.47c-.09 12.36-9.16 21.63-21.01 21.66-11.72.04-21.05-8.71-21.1-20.89-.11-26.98.15-53.96.56-80.94.16-10.68 9.87-19.37 20.82-19.45 11.18-.08 20.76 8.62 21.03 19.79.33 13.58.08 27.17.08 40.76"/><g fill="#ffca20"><path d="m403.46 178.21c-9.95-8.6-18.58-16.05-27.19-23.53-2.06-1.79-4.07-.58-6.15-.12-9.52 2.11-19.38-1.66-23.78-9.06-4.49-7.56-2.92-16.19 4.03-22.06 7.3-6.17 19.85-6.58 27.68-.91 7.96 5.77 10.21 14.93 4.96 23.12-1.98 3.09-1.22 4.38 1.18 6.41 9.51 8.03 18.86 16.23 28.26 24.37 1.49 1.29 3.27 1.99 5.12 2.74 4.72 1.91 7.09 5.51 6.32 10.4-.76 4.84-4.03 8.28-9.1 8.37-16.32.29-32.66.25-48.98-.12-6.05-.14-10-4.87-9.82-10.19.19-5.49 4.54-9.54 11.08-9.63 9.35-.13 18.71.12 28.07.2 2.17.03 4.34.01 8.32.01z"/><path d="m511.98 179.07c12.46 0 24.2-.03 35.93.01 7.65.02 12.55 4 12.47 10-.07 5.79-4.82 9.81-12.14 9.74-15.13-.15-30.26.51-45.39-.4-5.59-.34-9.11-2.74-10.27-7.75-1.18-5.09 1.27-8.8 6.16-10.98 1.85-.82 3.36-1.95 4.78-3.3 8.86-8.43 17.68-16.9 26.66-25.21 2.26-2.09 2.96-3.73 1.69-6.79-3.56-8.62-.5-16.84 7.46-21.69 8.15-4.96 20.15-3.91 27.15 2.37 6.27 5.62 7.64 14.06 3.45 21.27-4.34 7.47-15 12.46-23.52 9.01-7.21-2.92-10.66-.19-14.9 4.14-5.96 6.09-12.33 11.81-18.51 17.71-.24.24-.34.62-1.02 1.87z"/><path d="m485.24 176.85c-.1 13.5-12.77 24.54-28.15 24.54-15.21 0-28.1-11.28-28.17-24.65-.07-13.54 13.3-25.18 28.56-24.85 15.55.33 27.86 11.4 27.76 24.96z"/></g><path d="m326.89 416.65c10.42 11.05 14.59 13.86 23.88 16.17 27.25 6.77 51.75-4.55 63.72-29.34 5.22-10.82 7.15-22.28 7.92-34.01-.28-4.84-.23-9.69-.07-14.52.51-14.9-4.53-28.04-13.8-39.83-3.69-4.69-7.89-8.96-14.54-9.84-17.4-8.19-35.62-10.5-54.51-6.14-22.39 5.16-41.56 14.58-46.85 38.42-1.32 5.93-1.43 11.91-1.45 17.98-.07 19.82-.27 39.65-.43 59.47-.17 20.76-.32 41.52-.59 62.28-.03 2.5.77 3.27 3.37 3.18 5.17-.17 10.36.12 15.53-.09 9.86-.41 16.92-7.54 17-17m55.03-73.7c-4.51 10.02-12.88 15.5-24.77 15.36-12.3-.15-20.46-6.11-25.52-16.37-3.44-7-3.73-14.55-4.09-21.75.48-8.2.68-16.1 3.91-23.59 4.51-10.47 12.62-16.42 24.48-16.76 11.71-.33 21.03 4.38 25.79 14.86 7.26 15.95 7.39 32.28.2 48.25z"/><path d="m625.03 278.28c.01-8.02-6.8-14.69-15.28-15.62-5.12-.56-10.34-.16-15.5-.49-3.81-.24-5.19.82-5.06 4.69.32 9.43.1 18.88.1 28.33v20.46c-9.45-10.97-17.88-15.85-34.72-17.34-11.25-1-21.69 1.43-31.55 6.48-4.98 2.58-4.55 3.4-6.6 5.11-6.96 5.78-11.5 12.93-15.54 20.8-5.09 9.93-6.93 18.98-7.05 29.71-.63 10.03-.17 20.05 2.1 29.85 4.61 19.86 14.24 35.9 36.6 42.08 14.47 4 29.15 4.82 43.63 1.38 31.94-7.61 46.82-19.66 47.99-51.78 1.27-34.53.85-69.11.88-103.66zm-40.18 111.68c-4.24 10.27-12.03 16.26-23.8 16.73-11.76.46-21.15-3.92-26.04-14.36-7.43-15.86-7.91-32.21-.75-48.22 4.75-10.62 13.56-16.37 26.3-15.77 11.84.56 20.55 6.67 24.96 17.82 2.54 6.43 3.25 13.16 3.46 20.17-.34 7.9-.97 15.97-4.13 23.63z"/><path d="m279.46 334.67c-.01-16.31-8.15-27.8-24.32-33.23-18.05-6.06-36.71-6.91-55.26-2.94-16.87 3.62-28.71 13.24-33.65 29.55-1.13 3.75-.56 5.42 4.18 5.12 6.35-.4 12.74-.07 19.11-.11 5.79-.03 11.98 1.29 15.65-5.09.71-1.24 2.94-1.91 4.61-2.39 9.69-2.79 19.26-1.99 28.67 1.26 3.69 1.28 5.77 3.94 6.26 7.61.5 3.81-1.45 6.58-4.63 8.57-4.57 2.86-9.8 3.95-15.12 4.85-10.74 1.81-21.79 2.1-32.21 5.53-10.43 3.44-20.61 7.42-26.42 17.14-15.89 26.58.27 57.88 31.98 62.43 11.19 1.61 22.3.76 33.32-.54 25.14-2.96 43.45-16.15 46.11-37.87 1.73-14.18 1.34-24.83 1.73-35.02-.01-9.77-.01-17.32-.01-24.87zm-34.47 40.69c-.07 20.87-12.71 32.72-33.45 31.36-8.78-.58-14.42-4.95-15.65-12.13-1.44-8.4 2.22-15.06 10.06-18.42 5.66-2.43 11.81-3.11 17.75-4.53 4.04-.96 8.1-1.87 12.06-3.05 9.28-2.78 9.26-2.84 9.23 6.77z"/><path d="m523.03 304.77c-18.42 12.6-26.61 30.34-28.57 51.2-.14 1.49-.42 2.96-.63 4.43.03-9.24.1-18.46.08-27.69-.05-20.8-11.65-31.72-33.62-32.63-12.41-.52-23.37 1.43-31.24 11.45-4.29 5.46-6.35 11.58-6.34 18.45.02 13.18-.18 26.37-.29 39.52-.31-12.21-.64-24.33-5.24-36.01-4.64-11.78-11.48-21.73-23.17-28.2.14-20.96.3-41.92.4-62.88.09-17.97 13.96-31.68 32.92-31.87 20.91-.2 41.83-.13 62.74.16 19.43.27 33.47 14.61 33.21 32.89-.3 20.39-.18 40.79-.25 61.18z" fill="#ffca20"/><path d="m761.36 352.05c-4.32-32.65-26.88-52.28-61.45-53.15-29.59-.75-51.47 12.25-60.28 36.25-3.81 10.37-5.8 21.15-5.3 31.27 0 2.46-.08 3.98.01 5.48.93 15.2 2.95 30.34 13.07 42.77 15.28 18.76 36.88 23.42 60.32 21.14 27.14-2.64 43.99-17.5 51.23-42.27 3.99-13.64 4.26-27.48 2.4-41.49zm-34.76 13.67c.04 9-.9 16.88-3.74 24.4-6.22 16.46-23.14 22.66-38.43 14.34-5.32-2.89-8.57-7.32-10.38-12.65-4.61-13.55-5.54-27.4-2.35-41.3 3.36-14.63 13.63-22.5 27.97-22.17 12.43.29 22.74 9.8 25.57 23.76.98 4.82 1.75 9.69 1.36 13.62z"/><path d="m436.76 446.45h11.72c5.34 0 9.22.76 11.63 2.29 2.41 1.52 3.62 3.95 3.62 7.27 0 2.26-.53 4.11-1.58 5.55s-2.46 2.32-4.21 2.61v.26c2.39.53 4.11 1.53 5.16 3 1.06 1.46 1.58 3.41 1.58 5.84 0 3.44-1.24 6.13-3.72 8.06s-5.85 2.89-10.11 2.89h-14.09zm7.98 14.95h4.64c2.16 0 3.73-.33 4.7-1.01.97-.67 1.46-1.78 1.46-3.33 0-1.45-.53-2.48-1.58-3.11-1.06-.63-2.73-.94-5.01-.94h-4.2v8.39zm0 6.35v9.84h5.2c2.2 0 3.82-.42 4.87-1.27 1.05-.84 1.57-2.13 1.57-3.87 0-3.13-2.23-4.7-6.7-4.7z"/><path d="m482.75 484.2v-37.76h7.99v37.76z"/><path d="m541.06 484.2h-9.07l-9.87-15.91-3.37 2.43v13.48h-7.99v-37.76h7.99v17.28l3.14-4.44 10.2-12.83h8.86l-13.14 16.71z"/><path d="m578.04 484.2h-21.69v-37.76h21.69v6.56h-13.7v8.29h12.75v6.56h-12.75v9.74h13.7z"/><path d="m635.23 484.2h-7.99v-31.09h-10.23v-6.66h28.44v6.66h-10.23v31.09z"/><path d="m684.85 484.2-2.73-8.99h-13.73l-2.73 8.99h-8.6l13.29-37.91h9.76l13.34 37.91zm-4.63-15.7c-2.52-8.14-3.95-12.75-4.26-13.82s-.55-1.91-.68-2.53c-.57 2.2-2.19 7.65-4.87 16.35z"/><path d="m739.19 484.2h-9.12l-8.76-14.28-8.76 14.28h-8.55l12.49-19.47-11.69-18.28h8.81l8.11 13.58 7.96-13.58h8.6l-11.82 18.72z"/><path d="m754.48 484.2v-37.76h7.99v37.76z"/></svg>