<svg width="91" height="45" viewBox="0 0 91 45" fill="none" xmlns="http://www.w3.org/2000/svg">
<path d="M37.504 36.4583C34.2933 36.4583 31.7867 35.5765 29.9846 33.8126C28.1824 32.0488 27.2814 29.5482 27.2814 26.3107V14.2334H33.4335V26.1244C33.4335 27.9921 33.8011 29.3307 34.5365 30.14C35.2718 30.949 36.2818 31.3538 37.5663 31.3538C38.8508 31.3538 39.8547 30.9492 40.5799 30.14C41.3047 29.331 41.6673 27.9923 41.6673 26.1244V14.2334H47.7265V26.3107C47.7265 29.5482 46.8252 32.0488 45.0231 33.8126C43.2208 35.5765 40.7145 36.4583 37.504 36.4583Z" fill="#0B2C4B"/>
<path d="M41.6768 36.4585V14.2234H52.0127C54.4273 14.2234 56.5506 14.6788 58.3826 15.5895C60.2146 16.5002 61.6455 17.7811 62.6762 19.433C63.7067 21.0851 64.222 23.0542 64.222 25.3414C64.222 27.6285 63.7067 29.5715 62.6762 31.2336C61.6455 32.896 60.2146 34.1823 58.3826 35.093C56.5506 36.0037 54.4276 36.4587 52.0127 36.4587H41.6768V36.4585ZM47.8595 31.4398H51.7628C53.012 31.4398 54.0996 31.2016 55.0259 30.7251C55.952 30.2487 56.6757 29.5499 57.1958 28.6284C57.7161 27.7074 57.9766 26.6117 57.9766 25.3411C57.9766 24.0706 57.7161 22.9483 57.1958 22.0376C56.6755 21.127 55.952 20.4333 55.0259 19.9569C54.0994 19.4805 53.0117 19.2419 51.7628 19.2419H47.8595V31.4395V31.4398Z" fill="#0B2C4B"/>
<path d="M42.2197 35.4177H37.9778V36.4377H42.2197V35.4177Z" fill="#0B2C4B"/>
<path d="M63.9761 36.4523V14.384H70.0832V36.4523H63.9761Z" fill="#0B2C4B"/>
<path d="M66.9644 36.4658L76.5298 23.1567L76.4986 27.5723L70.0075 19.0518H76.9784L80.1556 23.0314L77.1862 23.0627L82.969 14.5447H89.6583L80.4685 27.3215V22.9374L90.1588 36.4658H83.0315L77.0612 27.541H79.9059L74.0289 36.4658H66.9644Z" fill="#F89A36"/>
<path fill-rule="evenodd" clip-rule="evenodd" d="M70.7831 18.5022C70.8006 18.4387 70.8465 18.3864 70.9068 18.3607V17.9607C70.9068 17.8429 71.0011 17.7464 71.118 17.7432C71.1723 17.7056 71.2573 17.6952 71.3158 17.6865C71.3725 17.6779 71.4294 17.6711 71.4863 17.6659C71.7254 17.6445 71.9659 17.6389 72.2059 17.6385C72.4459 17.638 72.6862 17.6427 72.9255 17.6639C72.9826 17.6689 73.0398 17.6756 73.0967 17.6844C73.1567 17.6937 73.244 17.7052 73.298 17.7453C73.4033 17.7601 73.4845 17.8512 73.4845 17.9607V18.3531C73.5545 18.3747 73.6096 18.4308 73.6291 18.5022C73.763 18.5545 73.8662 18.6688 73.9036 18.8096C73.918 18.8642 73.9067 18.9207 73.8723 18.9654C73.8379 19.0102 73.7864 19.0357 73.7299 19.0357H70.6823C70.6259 19.0357 70.5743 19.0102 70.5399 18.9656C70.5055 18.9207 70.4943 18.8644 70.5089 18.8096C70.5462 18.669 70.6493 18.5548 70.7831 18.5025V18.5022Z" fill="white"/>
<path fill-rule="evenodd" clip-rule="evenodd" d="M70.853 18.5643V18.5632C70.853 18.4893 70.9113 18.4282 70.9844 18.4244V17.9644C70.9844 17.8869 71.0476 17.8236 71.125 17.8236H71.1486C71.1734 17.7853 71.2924 17.7715 71.3281 17.7661C71.383 17.7578 71.4388 17.7512 71.4941 17.7463C71.731 17.7251 71.9695 17.7195 72.2072 17.719C72.4448 17.7186 72.6832 17.7233 72.9199 17.7443C72.9752 17.7492 73.0312 17.7558 73.0863 17.7641C73.1232 17.7697 73.2418 17.7844 73.2661 17.8236H73.2685C73.3459 17.8236 73.4091 17.8869 73.4091 17.9644V18.4242H73.4231C73.4993 18.4242 73.5616 18.4866 73.5616 18.563V18.5641C73.6923 18.5986 73.796 18.7018 73.8307 18.833C73.839 18.8647 73.8329 18.8965 73.8129 18.9222C73.7931 18.9481 73.7639 18.9625 73.7313 18.9625H70.6837C70.651 18.9625 70.622 18.9481 70.602 18.9224C70.582 18.8965 70.5757 18.8645 70.5842 18.833C70.6191 18.7018 70.7228 18.5986 70.8533 18.5641L70.853 18.5643ZM71.0548 18.4375H72.3213C72.0115 18.4181 71.7276 18.3953 71.3115 18.4115V18.0239C71.3115 18.0034 71.3286 17.9863 71.349 17.9863L73.3421 17.9647C73.3421 17.9442 73.325 17.927 73.3045 17.927H71.0926C71.0721 17.927 71.055 17.9442 71.055 17.9647V18.4375H71.0548ZM73.6051 18.8728H73.6901C73.6806 18.8025 73.5751 18.707 73.4951 18.7099C73.5515 18.7415 73.6141 18.7944 73.6051 18.8728ZM71.2935 18.8728H73.2942C72.9979 18.8544 71.8226 18.8325 71.3023 18.8449C71.3385 18.7446 71.4181 18.677 71.5067 18.677H73.4485C73.6428 18.677 73.7362 18.7572 73.7668 18.8728C73.7702 18.8724 73.7722 18.8708 73.7747 18.8679C73.7776 18.8641 73.7783 18.8609 73.7769 18.8564C73.7436 18.7309 73.6291 18.6421 73.4993 18.6421H70.8737C70.7561 18.6421 70.6785 18.7476 70.6443 18.8564C70.6429 18.8609 70.6436 18.8641 70.6465 18.8679C70.6495 18.8717 70.6522 18.8731 70.6571 18.8731H71.2933L71.2935 18.8728ZM71.0904 17.8894H73.3151C73.2323 17.8714 71.6127 17.8596 71.0904 17.8894ZM71.2696 17.8324H73.1543C73.0807 17.779 71.7335 17.744 71.2696 17.8324ZM71.0973 18.57C71.0982 18.5366 71.1259 18.5098 71.1594 18.5098H73.4795C73.4683 18.4931 73.4494 18.4821 73.428 18.4821H70.9759C70.9419 18.4821 70.9138 18.5102 70.9138 18.5443C70.9138 18.5535 70.9158 18.5623 70.9194 18.5702C70.9237 18.5702 70.9279 18.5702 70.9324 18.5702H71.0976L71.0973 18.57Z" fill="#0B2C4B"/>
<path fill-rule="evenodd" clip-rule="evenodd" d="M73.0531 17.066C73.0054 17.1027 72.9411 17.1142 72.8826 17.0933L71.6593 16.6549C71.6006 16.634 71.5578 16.5842 71.5446 16.5254C71.4688 16.4442 71.4424 16.325 71.4802 16.2187C71.5318 16.0746 71.6827 15.994 71.828 16.0271C71.8546 16.0154 71.8838 16.0102 71.913 16.0122C71.9261 15.9944 71.9337 15.9687 71.9358 15.9448C71.8968 15.927 71.8658 15.8964 71.8474 15.8588C71.7083 15.7902 71.6393 15.626 71.6926 15.4763C71.7347 15.3587 71.8433 15.2798 71.9634 15.2717L72.1054 14.8742C72.0176 14.7915 71.9832 14.6617 72.0255 14.5438C72.0788 14.3942 72.2363 14.311 72.3872 14.3464C72.4252 14.329 72.4687 14.325 72.5101 14.336C72.5235 14.3162 72.5339 14.2914 72.5352 14.2693C72.5112 14.2524 72.4918 14.2299 72.4786 14.2037C72.3454 14.1368 72.2797 13.9786 72.3312 13.8346C72.3695 13.7278 72.4648 13.6525 72.5751 13.6383C72.6227 13.6014 72.6873 13.5901 72.7458 13.611L73.9691 14.0491C74.0278 14.0701 74.0705 14.1199 74.0838 14.1787C74.1596 14.2596 74.1859 14.3791 74.1481 14.4854C74.0966 14.6292 73.9457 14.7099 73.8004 14.677C73.7736 14.6887 73.7443 14.6939 73.7153 14.6919C73.7023 14.7097 73.6946 14.7354 73.6926 14.7592C73.7315 14.777 73.7626 14.8077 73.781 14.8456C73.92 14.9141 73.9891 15.0783 73.9358 15.228C73.9254 15.2571 73.9108 15.2841 73.8928 15.3082C74.0737 15.3851 74.2505 15.4714 74.4239 15.5638C74.4896 15.5203 74.5737 15.5083 74.6502 15.5356C74.6867 15.5487 74.7195 15.5701 74.7463 15.5973C74.7843 15.5931 74.823 15.5973 74.8594 15.6104C74.9584 15.6458 75.022 15.7373 75.0274 15.8369C75.5156 15.9928 76.0154 16.1089 76.5139 16.2259C77.047 16.3509 77.5808 16.478 78.0973 16.6619C78.2894 16.7302 78.4791 16.8064 78.6642 16.8925C78.9159 17.0097 79.05 17.2772 78.9589 17.5458L78.958 17.5485C78.8585 17.8131 78.5843 17.9347 78.3169 17.8658C78.1191 17.8149 77.9243 17.7533 77.7325 17.6841C77.2166 17.4982 76.7236 17.2575 76.232 17.0155C75.7725 16.7893 75.3127 16.5614 74.8365 16.3721C74.7692 16.4456 74.6619 16.4758 74.5632 16.4404C74.5265 16.4273 74.4936 16.4061 74.4671 16.3787C74.4291 16.3829 74.3904 16.3787 74.354 16.3656C74.277 16.3381 74.2197 16.2757 74.1965 16.2002C74.0028 16.1612 73.8103 16.1154 73.6206 16.0595C73.6204 16.0936 73.6146 16.1278 73.6026 16.161C73.5493 16.3106 73.3918 16.3938 73.2409 16.3584C73.2027 16.3757 73.1593 16.3798 73.1181 16.3687C73.1046 16.3886 73.0942 16.4131 73.0929 16.4352C73.1167 16.4521 73.1363 16.4747 73.1494 16.5008C73.2825 16.5677 73.3484 16.7259 73.2969 16.8699C73.2587 16.9768 73.1631 17.052 73.0529 17.0664L73.0531 17.066Z" fill="#E9F2F9"/>
<path fill-rule="evenodd" clip-rule="evenodd" d="M74.2735 16.1332C74.0067 16.0816 73.7404 16.0174 73.4822 15.9318C73.5265 15.9892 73.5416 16.0674 73.5157 16.1402C73.475 16.2538 73.3492 16.3135 73.2356 16.273L73.2257 16.2694C73.201 16.2923 73.1645 16.3005 73.1319 16.2887L73.0921 16.2745C73.0255 16.3214 72.9792 16.4278 73.0113 16.5055L73.0174 16.5078C73.0487 16.5191 73.0707 16.5465 73.0757 16.5785L73.0836 16.5815C73.192 16.6202 73.2487 16.7406 73.21 16.8492C73.1803 16.9328 73.0997 16.9885 73.012 16.9882C72.9889 17.0189 72.9477 17.0315 72.9108 17.0184L71.6875 16.5803C71.6504 16.5671 71.6268 16.531 71.6281 16.4927C71.5602 16.4372 71.5332 16.343 71.5631 16.2594C71.6018 16.1508 71.7219 16.0938 71.8304 16.1326L71.8382 16.1353C71.8623 16.1136 71.897 16.1064 71.9282 16.1175L71.9341 16.1195C72.0083 16.0798 72.0398 15.9681 72.018 15.8896L71.9782 15.8754C71.9453 15.8637 71.9224 15.8346 71.9179 15.8008L71.9082 15.7975C71.7948 15.7567 71.7352 15.6307 71.7757 15.5169C71.8121 15.4148 71.9194 15.3551 72.024 15.3756L72.2112 14.8512C72.117 14.8005 72.072 14.6867 72.1086 14.5841C72.1493 14.4706 72.2751 14.4106 72.3887 14.4514L72.3984 14.455C72.4233 14.432 72.4595 14.4239 72.4922 14.4356L72.532 14.4498C72.5986 14.4029 72.6449 14.2966 72.6125 14.2188L72.6067 14.2166C72.5754 14.2053 72.5534 14.1778 72.5484 14.1458L72.5405 14.1429C72.4321 14.1041 72.3754 13.9836 72.4141 13.8752C72.4438 13.7916 72.5243 13.7359 72.6118 13.7363C72.635 13.7057 72.6762 13.6928 72.7133 13.7061L73.9366 14.1442C73.9737 14.1575 73.9973 14.1934 73.9957 14.2319C74.0637 14.2873 74.0907 14.3815 74.061 14.4649C74.0223 14.5735 73.9021 14.6306 73.7937 14.5918L73.7858 14.5889C73.7618 14.6105 73.7271 14.6179 73.6959 14.6067L73.69 14.6046C73.6158 14.6443 73.5843 14.7561 73.6061 14.8345L73.6459 14.8487C73.6788 14.8604 73.7017 14.8897 73.7062 14.9235L73.7159 14.9269C73.8293 14.9677 73.8889 15.0937 73.8484 15.2075C73.825 15.2726 73.7726 15.3215 73.7094 15.342C73.9582 15.4387 74.1995 15.5559 74.4339 15.683C74.4769 15.6289 74.5509 15.6068 74.6173 15.6307C74.6564 15.6447 74.6883 15.6731 74.7072 15.7093C74.7448 15.6933 74.7878 15.6918 74.8265 15.7055C74.9097 15.7353 74.954 15.8265 74.9275 15.9101C75.4401 16.0785 75.966 16.2006 76.4908 16.3237C77.0206 16.4478 77.5513 16.5743 78.0646 16.7568C78.2542 16.8242 78.4411 16.8995 78.6236 16.9842C78.8332 17.0818 78.9473 17.3013 78.871 17.5264C78.7876 17.7479 78.5601 17.8455 78.3368 17.7878C78.142 17.7376 77.9499 17.6769 77.7605 17.6087C77.248 17.4239 76.7576 17.1843 76.2693 16.9438C75.7854 16.7056 75.3015 16.4659 74.7983 16.2705C74.7662 16.3523 74.6742 16.3947 74.5909 16.3647C74.5518 16.3507 74.5198 16.3223 74.501 16.286C74.4632 16.302 74.4204 16.3038 74.3817 16.2899C74.3156 16.266 74.2722 16.202 74.2731 16.1328L74.2735 16.1332ZM76.3901 16.446C77.0764 16.6074 77.7719 16.7557 78.436 16.9952C78.3044 16.9387 78.1708 16.8866 78.0358 16.8386C77.5193 16.6547 76.9839 16.5285 76.451 16.4034C75.9161 16.2781 75.3812 16.1533 74.8595 15.9791L74.8584 15.998C75.3645 16.1688 75.8707 16.3239 76.3898 16.446H76.3901ZM72.4816 13.8988C72.4562 13.9703 72.4935 14.0496 72.5648 14.0753L73.818 14.5242C73.8673 14.5418 73.9204 14.5294 73.9568 14.4965L72.8762 14.1093C72.8048 14.0838 72.7673 14.0043 72.7927 13.9329C72.8006 13.9108 72.8136 13.8918 72.83 13.8772L72.6577 13.8154C72.5864 13.79 72.5072 13.8274 72.4818 13.8988H72.4816ZM73.1681 16.2117L71.9991 15.7929L71.9984 15.795C71.9953 15.8042 72.0004 15.8148 72.0101 15.8182L73.1438 16.2243C73.1535 16.2277 73.1643 16.2229 73.1675 16.2135L73.1681 16.2114V16.2117ZM73.2858 15.8353L73.32 15.8475L73.5161 15.2976L73.4822 15.2854L73.2858 15.8353ZM73.5245 14.844C73.5119 14.7939 73.515 14.7385 73.5287 14.691C73.5449 14.6342 73.5773 14.5826 73.6241 14.5497C73.5285 14.5188 73.4291 14.8131 73.5245 14.844ZM73.9228 14.2362L73.9235 14.2342C73.9269 14.2249 73.9217 14.2146 73.9127 14.2112L72.6894 13.7731C72.6802 13.7697 72.6699 13.7747 72.6665 13.7839L72.6658 13.7859L73.9228 14.2362ZM72.3909 15.5146L72.4622 15.5401L72.6586 14.9902L72.5873 14.9648L72.3912 15.5146H72.3909ZM72.9513 14.6892L72.952 14.6871C72.9553 14.6779 72.9502 14.6673 72.9403 14.6639L72.4807 14.4992C72.471 14.4958 72.4602 14.5005 72.4568 14.5098L72.4562 14.5118L72.9511 14.6892H72.9513ZM73.6923 14.5197L72.6258 14.1375L72.6251 14.1395C72.6217 14.1487 72.6267 14.1591 72.6361 14.1625L73.6689 14.5325C73.6781 14.5359 73.6887 14.531 73.6918 14.5215L73.6925 14.5195L73.6923 14.5197ZM72.9589 16.9375L71.7019 16.4873L71.7012 16.4893C71.6979 16.4985 71.7028 16.5089 71.712 16.5123L72.9353 16.9504C72.9445 16.9538 72.9549 16.9488 72.9583 16.9396L72.9589 16.9375ZM71.6308 16.2829C71.6054 16.3543 71.643 16.4336 71.7143 16.4591L72.9675 16.908C73.0167 16.9256 73.0698 16.9132 73.1063 16.8803L72.0256 16.4931C71.9543 16.4677 71.9167 16.3881 71.9422 16.3169C71.95 16.2948 71.9631 16.2759 71.9795 16.2612L71.8072 16.1995C71.7359 16.174 71.6567 16.2114 71.6313 16.2829H71.6308ZM72.4604 16.3928L72.4611 16.3908C72.4645 16.3816 72.4595 16.371 72.4503 16.3678L71.9172 16.1767C71.908 16.1736 71.8974 16.1783 71.8943 16.1878L71.8936 16.1898L72.4607 16.3931L72.4604 16.3928ZM72.0888 15.8752C72.1014 15.9252 72.0981 15.9807 72.0846 16.0282C72.0684 16.0848 72.0362 16.1366 71.9892 16.1695L72.1255 16.2184C72.1649 16.183 72.1941 16.1301 72.2112 16.0737C72.2216 16.0399 72.2276 16.0023 72.2283 15.9665L72.8658 16.154C72.6067 16.0611 72.3475 15.9683 72.0886 15.8754L72.0888 15.8752ZM73.0356 16.2144C72.9423 16.1774 72.8332 16.4683 72.9263 16.5053C72.9108 16.4503 72.9187 16.3897 72.9421 16.3356C72.9616 16.2901 72.9942 16.2452 73.0356 16.2146V16.2144ZM71.8457 15.5415C71.8196 15.6145 71.8576 15.6954 71.9302 15.7213L73.2831 16.2058C73.3332 16.2238 73.3724 16.2058 73.4097 16.172L72.2625 15.761C72.1901 15.735 72.152 15.6541 72.1779 15.5811C72.186 15.5586 72.1993 15.5394 72.2159 15.5243L72.0249 15.456C71.9525 15.4301 71.8718 15.4684 71.8457 15.5415ZM72.0967 15.4092L72.3435 15.4975L72.5396 14.9476L72.2931 14.8593L72.0967 15.4092ZM72.1786 14.6085C72.1525 14.6815 72.1907 14.7624 72.2632 14.7883L73.616 15.2728C73.6662 15.2909 73.7053 15.2728 73.7427 15.239L72.5954 14.828C72.523 14.8021 72.485 14.7212 72.5108 14.6481C72.5189 14.6256 72.5322 14.6064 72.5489 14.5913L72.3579 14.5231C72.2854 14.4971 72.2047 14.5355 72.1786 14.6085ZM72.6822 14.2121C72.6948 14.2621 72.6917 14.3175 72.6782 14.3651C72.662 14.4219 72.6296 14.4735 72.5828 14.5064L72.7194 14.5553C72.7585 14.5197 72.788 14.467 72.8051 14.4106C72.8152 14.3768 72.8217 14.3394 72.8224 14.3033L73.4599 14.4906C73.2008 14.3978 72.9416 14.3049 72.6825 14.2121H72.6822ZM74.8031 16.1384L74.7902 16.174C75.9975 16.6365 77.1315 17.3869 78.359 17.7038C78.7268 17.7986 78.9509 17.3937 78.7093 17.1473C78.7912 17.3883 78.582 17.6053 78.2877 17.5316C77.6487 17.3711 76.8544 17.0658 76.2715 16.7791C75.7926 16.5436 75.3024 16.3277 74.8031 16.1384ZM73.457 15.6375L73.3956 15.8094C73.6932 15.9171 74.007 15.994 74.3178 16.053L74.3424 15.9838C74.0439 15.891 73.7422 15.7794 73.457 15.6372V15.6375ZM73.5388 15.408C73.8367 15.5095 74.139 15.6244 74.4166 15.776L74.4206 15.7648C74.1428 15.6131 73.8518 15.4732 73.5532 15.3675L73.5388 15.4083V15.408ZM74.4116 16.2081C74.4517 16.2225 74.4962 16.2013 74.5106 16.1612L74.5293 16.1091C74.5138 16.1139 74.4969 16.1141 74.4805 16.1082C74.4404 16.094 74.4195 16.0492 74.4337 16.0093L74.5403 15.7109C74.5178 15.7179 74.4987 15.735 74.4902 15.7587L74.3651 16.1091C74.3507 16.1492 74.3718 16.1939 74.4119 16.2081H74.4116ZM74.6209 16.2831C74.6607 16.2973 74.7054 16.2761 74.7196 16.2362L74.7383 16.1842C74.7228 16.1889 74.7059 16.1889 74.6897 16.1833C74.6496 16.1691 74.6285 16.1242 74.6429 16.0843L74.7495 15.786C74.727 15.793 74.7077 15.8101 74.6991 15.8337L74.5741 16.1842C74.5597 16.2241 74.581 16.2689 74.6209 16.2833V16.2831Z" fill="#0B2C4B"/>
<path d="M19.2767 2.38247V40.3082L14.3775 42.8532V0L19.2767 2.38247Z" fill="#0B2C4B"/>
<path d="M24.9178 5.29165V37.1722L19.9626 39.8204V2.8125L24.9178 5.29165Z" fill="#0B2C4B"/>
<path d="M4.30079 27.225V35.9984L0 38.2323V24.9712L4.30079 27.225Z" fill="#0B2C4B"/>
<path d="M13.6501 32.0225V36.5188L4.30079 41.3752L3.97574 41.5442L0 39.3107V39.1131L4.30079 36.8791L13.6501 32.0225Z" fill="#0B2C4B"/>
<path d="M13.6509 38.5515V43.1488L10.0877 44.9999L5.836 42.6111L13.6509 38.5515Z" fill="#0B2C4B"/>
</svg>
