<svg width="121" height="60" viewBox="0 0 121 60" fill="none" xmlns="http://www.w3.org/2000/svg">
<g clip-path="url(#clip0_792_161)">
<path d="M50.1154 48.594C45.8256 48.594 42.4765 47.4179 40.0688 45.0655C37.6607 42.713 36.457 39.3781 36.457 35.0604V18.9531H44.6769V34.8118C44.6769 37.3028 45.168 39.0881 46.1505 40.1674C47.133 41.2463 48.4825 41.7861 50.1986 41.7861C51.9148 41.7861 53.2561 41.2466 54.2251 40.1674C55.1935 39.0884 55.678 37.3031 55.678 34.8118V18.9531H63.7737V35.0604C63.7737 39.3781 62.5694 42.713 60.1616 45.0655C57.7536 47.4179 54.4049 48.594 50.1154 48.594Z" fill="white"/>
<path d="M55.6924 48.5919V18.9375H69.5022C72.7283 18.9375 75.5653 19.5449 78.013 20.7595C80.4607 21.974 82.3725 23.6823 83.7496 25.8854C85.1264 28.0887 85.815 30.715 85.815 33.7653C85.815 36.8156 85.1264 39.407 83.7496 41.6235C82.3725 43.8407 80.4607 45.5563 78.013 46.7708C75.5653 47.9853 72.7286 48.5922 69.5022 48.5922H55.6924V48.5919ZM63.9531 41.8982H69.1683C70.8373 41.8982 72.2904 41.5806 73.5281 40.9452C74.7655 40.3098 75.7324 39.3778 76.4272 38.1488C77.1224 36.9205 77.4705 35.4592 77.4705 33.7647C77.4705 32.0702 77.1224 30.5734 76.4272 29.3589C75.7321 28.1443 74.7655 27.2192 73.5281 26.5839C72.2901 25.9485 70.837 25.6302 69.1683 25.6302H63.9531V41.8979V41.8982Z" fill="white"/>
<path d="M56.4146 47.2266H50.7471V48.5869H56.4146V47.2266Z" fill="white"/>
<path d="M85.4814 48.596V19.1641H93.6412V48.596H85.4814Z" fill="white"/>
<path d="M89.4773 48.6029L102.258 30.8528L102.216 36.7419L93.5432 25.3782H102.857L107.102 30.6857L103.135 30.7275L110.861 19.3672H119.799L107.52 36.4073V30.5604L120.467 48.6029H110.945L102.968 36.7001H106.768L98.9162 48.6029H89.4773Z" fill="#F89A36"/>
<path fill-rule="evenodd" clip-rule="evenodd" d="M94.5818 24.6442C94.6052 24.5595 94.6665 24.4898 94.7471 24.4555V23.922C94.7471 23.7648 94.873 23.6362 95.0293 23.632C95.1017 23.5818 95.2153 23.568 95.2935 23.5562C95.3692 23.5448 95.4453 23.5358 95.5213 23.5289C95.8408 23.5003 96.1621 23.4928 96.4828 23.4922C96.8035 23.4916 97.1245 23.4979 97.4442 23.5262C97.5206 23.5328 97.5969 23.5418 97.673 23.5535C97.7532 23.5659 97.8698 23.5812 97.942 23.6347C98.0826 23.6545 98.1911 23.7759 98.1911 23.922V24.4453C98.2846 24.4741 98.3582 24.549 98.3844 24.6442C98.5632 24.714 98.7012 24.8664 98.751 25.0542C98.7703 25.1269 98.7552 25.2024 98.7093 25.2619C98.6633 25.3217 98.5945 25.3557 98.519 25.3557H94.4471C94.3717 25.3557 94.3029 25.3217 94.2569 25.2622C94.2109 25.2024 94.1959 25.1272 94.2154 25.0542C94.2653 24.8667 94.4029 24.7143 94.5818 24.6445V24.6442Z" fill="white"/>
<path fill-rule="evenodd" clip-rule="evenodd" d="M94.6747 24.7212V24.7197C94.6747 24.6211 94.7525 24.5396 94.8502 24.5345V23.9211C94.8502 23.8177 94.9347 23.7332 95.038 23.7332H95.0696C95.1027 23.6822 95.2617 23.6638 95.3094 23.6566C95.3828 23.6455 95.4573 23.6368 95.5313 23.6302C95.8477 23.6019 96.1663 23.5944 96.484 23.5938C96.8014 23.5932 97.12 23.5995 97.4362 23.6274C97.5101 23.6341 97.5849 23.6428 97.6586 23.6539C97.7079 23.6614 97.8662 23.6809 97.8987 23.7332H97.902C98.0054 23.7332 98.0899 23.8177 98.0899 23.9211V24.5342H98.1085C98.2104 24.5342 98.2936 24.6175 98.2936 24.7194V24.7209C98.4683 24.7668 98.6068 24.9045 98.6531 25.0794C98.6642 25.1218 98.6561 25.1642 98.6294 25.1984C98.6029 25.233 98.5638 25.2522 98.5202 25.2522H94.4484C94.4048 25.2522 94.366 25.233 94.3393 25.1987C94.3125 25.1642 94.3041 25.1215 94.3155 25.0794C94.3621 24.9045 94.5007 24.7668 94.675 24.7209H94.6747V24.7212ZM94.9443 24.5523H96.6364C96.2225 24.5264 95.8432 24.496 95.2872 24.5177V24.0007C95.2872 23.9734 95.31 23.9505 95.3374 23.9505L98.0003 23.9217C98.0003 23.8943 97.9775 23.8715 97.9501 23.8715H94.9948C94.9674 23.8715 94.9446 23.8943 94.9446 23.9217V24.5523H94.9443ZM98.3516 25.1329H98.4653C98.4526 25.0391 98.3117 24.9117 98.2047 24.9156C98.2801 24.9577 98.3637 25.0283 98.3516 25.1329ZM95.2632 25.1329H97.9363C97.5404 25.1083 95.9701 25.0791 95.2749 25.0957C95.3233 24.9619 95.4297 24.8717 95.5481 24.8717H98.1425C98.4021 24.8717 98.5269 24.9787 98.5677 25.1329C98.5722 25.1323 98.575 25.1302 98.5783 25.1263C98.5822 25.1212 98.5831 25.117 98.5813 25.111C98.5368 24.9436 98.3838 24.8252 98.2104 24.8252H94.7023C94.5451 24.8252 94.4414 24.9658 94.3958 25.111C94.394 25.117 94.3949 25.1212 94.3988 25.1263C94.4027 25.1314 94.4063 25.1332 94.4129 25.1332H95.2632V25.1329ZM94.9918 23.821H97.9642C97.8536 23.797 95.6896 23.7813 94.9918 23.821ZM95.2313 23.745H97.7493C97.6511 23.6737 95.851 23.6271 95.2313 23.745ZM95.0011 24.7287C95.0023 24.6842 95.0392 24.6484 95.084 24.6484H98.1839C98.1689 24.6262 98.1437 24.6115 98.1151 24.6115H94.8388C94.7934 24.6115 94.7558 24.649 94.7558 24.6944C94.7558 24.7067 94.7585 24.7185 94.7633 24.729H95.0011V24.7287Z" fill="white"/>
<path fill-rule="evenodd" clip-rule="evenodd" d="M97.6133 22.7233C97.5496 22.7723 97.4637 22.7876 97.3855 22.7597L95.7511 22.1751C95.6727 22.1471 95.6156 22.0807 95.5978 22.0023C95.4965 21.8941 95.4614 21.7351 95.5119 21.5932C95.5807 21.4012 95.7824 21.2936 95.9765 21.3377C96.012 21.3221 96.0511 21.3152 96.0901 21.3179C96.1076 21.2942 96.1178 21.2599 96.1205 21.228C96.0685 21.2043 96.027 21.1634 96.0024 21.1132C95.8166 21.0219 95.7244 20.8028 95.7956 20.6032C95.8518 20.4463 95.997 20.3411 96.1575 20.3303L96.3471 19.8001C96.2299 19.6898 96.1839 19.5167 96.2404 19.3595C96.3116 19.1599 96.522 19.049 96.7237 19.0962C96.7745 19.0731 96.8325 19.0677 96.8878 19.0824C96.9058 19.0559 96.9197 19.0229 96.9215 18.9934C96.8893 18.9709 96.8634 18.9408 96.8457 18.906C96.6678 18.8167 96.58 18.6057 96.6489 18.4137C96.6999 18.2712 96.8274 18.1708 96.9747 18.1519C97.0384 18.1026 97.1246 18.0876 97.2028 18.1155L98.8372 18.6998C98.9156 18.7277 98.9727 18.7942 98.9905 18.8726C99.0918 18.9805 99.1269 19.1398 99.0764 19.2817C99.0076 19.4734 98.8059 19.581 98.6118 19.5371C98.576 19.5528 98.5369 19.5597 98.4982 19.557C98.4807 19.5807 98.4705 19.615 98.4678 19.6468C98.5198 19.6706 98.5613 19.7114 98.5859 19.7619C98.7717 19.8533 98.8639 20.0724 98.7927 20.272C98.7789 20.3108 98.7593 20.3468 98.7353 20.379C98.9769 20.4815 99.2132 20.5966 99.4449 20.7198C99.5327 20.6618 99.6451 20.6459 99.7473 20.6822C99.7959 20.6997 99.8398 20.7282 99.8756 20.7646C99.9264 20.7589 99.9781 20.7646 100.027 20.782C100.159 20.8292 100.244 20.9512 100.251 21.0841C100.903 21.2921 101.571 21.4468 102.237 21.6028C102.95 21.7696 103.663 21.9391 104.353 22.1844C104.61 22.2755 104.863 22.3771 105.11 22.4919C105.447 22.6482 105.626 23.0049 105.504 23.3632L105.503 23.3668C105.37 23.7196 105.004 23.8819 104.646 23.79C104.382 23.722 104.122 23.64 103.865 23.5477C103.176 23.2998 102.517 22.9788 101.861 22.656C101.247 22.3542 100.632 22.0504 99.9961 21.7979C99.9062 21.8959 99.7629 21.9361 99.6309 21.889C99.5819 21.8715 99.5381 21.8433 99.5026 21.8066C99.4518 21.8123 99.4001 21.8066 99.3514 21.7892C99.2486 21.7525 99.172 21.6693 99.141 21.5686C98.8823 21.5166 98.625 21.4556 98.3716 21.381C98.3713 21.4264 98.3635 21.4721 98.3476 21.5163C98.2763 21.7158 98.066 21.8267 97.8643 21.7796C97.8132 21.8027 97.7552 21.8081 97.7002 21.7934C97.6822 21.8198 97.6683 21.8526 97.6665 21.882C97.6984 21.9046 97.7245 21.9346 97.742 21.9695C97.9199 22.0588 98.008 22.2698 97.9391 22.4618C97.888 22.6043 97.7603 22.7047 97.613 22.7239V22.7233H97.6133Z" fill="#E9F2F9"/>
<path fill-rule="evenodd" clip-rule="evenodd" d="M99.2489 21.4705C98.8924 21.4017 98.5365 21.316 98.1915 21.2018C98.2507 21.2784 98.2709 21.3827 98.2363 21.4798C98.1819 21.6313 98.0139 21.7109 97.8621 21.6568L97.8489 21.652C97.8158 21.6827 97.7671 21.6935 97.7236 21.6779L97.6704 21.6589C97.5814 21.7214 97.5195 21.8633 97.5625 21.967L97.5706 21.97C97.6123 21.985 97.6418 22.0217 97.6484 22.0644L97.6589 22.0683C97.8038 22.12 97.8795 22.2805 97.8278 22.4253C97.7882 22.5368 97.6806 22.6111 97.5634 22.6108C97.5324 22.6517 97.4774 22.6685 97.4281 22.651L95.7937 22.0668C95.7441 22.049 95.7126 22.001 95.7144 21.9499C95.6236 21.8759 95.5875 21.7503 95.6275 21.6388C95.6792 21.4939 95.8397 21.4179 95.9846 21.4696L95.9951 21.4732C96.0272 21.4443 96.0735 21.4347 96.1153 21.4494L96.1231 21.4521C96.2223 21.3992 96.2644 21.2502 96.2352 21.1456L96.182 21.1266C96.1381 21.111 96.1075 21.0722 96.1015 21.0272L96.0885 21.0227C95.9371 20.9683 95.8574 20.8002 95.9115 20.6485C95.9602 20.5123 96.1036 20.4327 96.2433 20.46L96.4934 19.7606C96.3675 19.693 96.3074 19.5412 96.3563 19.4045C96.4107 19.253 96.5787 19.1731 96.7305 19.2275L96.7434 19.2323C96.7768 19.2016 96.8252 19.1908 96.8688 19.2064L96.922 19.2253C97.0109 19.1628 97.0729 19.021 97.0296 18.9173L97.0218 18.9143C96.98 18.8992 96.9505 18.8626 96.9439 18.8199L96.9334 18.816C96.7885 18.7643 96.7128 18.6035 96.7645 18.4589C96.8042 18.3474 96.9118 18.2732 97.0287 18.2738C97.0596 18.2329 97.1146 18.2158 97.1642 18.2335L98.7986 18.8178C98.8482 18.8355 98.8798 18.8833 98.8777 18.9347C98.9684 19.0086 99.0045 19.1343 98.9648 19.2455C98.9131 19.3904 98.7526 19.4664 98.6078 19.4147L98.5973 19.4108C98.5651 19.4396 98.5188 19.4496 98.477 19.4345L98.4692 19.4318C98.37 19.4847 98.328 19.6338 98.3571 19.7384L98.4103 19.7573C98.4542 19.773 98.4849 19.812 98.4909 19.8571L98.5038 19.8616C98.6553 19.916 98.7349 20.084 98.6808 20.2358C98.6496 20.3227 98.5795 20.3879 98.4951 20.4152C98.8275 20.5442 99.15 20.7005 99.4632 20.87C99.5206 20.7978 99.6194 20.7684 99.7081 20.8002C99.7604 20.8189 99.8031 20.8567 99.8283 20.9051C99.8785 20.8838 99.9359 20.8817 99.9876 20.9C100.099 20.9397 100.158 21.0614 100.123 21.1729C100.808 21.3974 101.51 21.5603 102.211 21.7244C102.919 21.89 103.628 22.0587 104.314 22.3021C104.567 22.392 104.817 22.4924 105.061 22.6054C105.341 22.7355 105.493 23.0282 105.392 23.3285C105.28 23.6239 104.976 23.7541 104.678 23.6771C104.417 23.6101 104.161 23.5293 103.908 23.4382C103.223 23.1917 102.568 22.8723 101.915 22.5516C101.269 22.2339 100.622 21.9141 99.95 21.6535C99.9071 21.7626 99.7841 21.8191 99.6729 21.7791C99.6206 21.7605 99.578 21.7226 99.5527 21.6743C99.5022 21.6956 99.4451 21.698 99.3934 21.6794C99.3051 21.6475 99.2471 21.5621 99.2483 21.4699L99.2489 21.4705ZM102.077 21.8876C102.994 22.1028 103.923 22.3006 104.81 22.6201C104.634 22.5447 104.456 22.4752 104.276 22.4112C103.586 22.166 102.87 21.9976 102.158 21.8308C101.443 21.6637 100.729 21.4972 100.032 21.2649L100.03 21.2901C100.707 21.518 101.383 21.7247 102.076 21.8876H102.077ZM96.8547 18.4905C96.8207 18.5858 96.8706 18.6916 96.9659 18.7258L98.6402 19.3245C98.7061 19.348 98.777 19.3314 98.8257 19.2876L97.3818 18.7712C97.2865 18.7372 97.2364 18.6312 97.2703 18.5359C97.2808 18.5064 97.2983 18.4812 97.3202 18.4616L97.09 18.3793C96.9947 18.3453 96.8889 18.3952 96.855 18.4905H96.8547ZM97.7719 21.5751L96.21 21.0166L96.2091 21.0193C96.2049 21.0317 96.2118 21.0458 96.2247 21.0503L97.7395 21.5919C97.7524 21.5964 97.7668 21.5901 97.771 21.5775L97.7719 21.5748V21.5751ZM97.9291 21.0734L97.9748 21.0897L98.2369 20.3563L98.1915 20.3401L97.9291 21.0734ZM98.248 19.7513C98.2312 19.6846 98.2354 19.6107 98.2537 19.5472C98.2754 19.4715 98.3186 19.4027 98.3812 19.3588C98.2534 19.3176 98.1206 19.7101 98.248 19.7513ZM98.7803 18.9407L98.7812 18.938C98.7857 18.9257 98.7788 18.9119 98.7668 18.9074L97.1324 18.3231C97.12 18.3186 97.1062 18.3252 97.1017 18.3375L97.1008 18.3402L98.7803 18.9407ZM96.7335 20.6458L96.8288 20.6797L97.0912 19.9464L96.9959 19.9124L96.7338 20.6458H96.7335ZM97.4822 19.5448L97.4831 19.5421C97.4876 19.5298 97.4807 19.5157 97.4675 19.5112L96.8534 19.2915C96.8405 19.287 96.8261 19.2933 96.8216 19.3056L96.8207 19.3083L97.4819 19.5448H97.4822ZM98.4722 19.3188L97.0473 18.8091L97.0464 18.8118C97.0419 18.8241 97.0485 18.8379 97.0611 18.8424L98.441 19.336C98.4533 19.3405 98.4674 19.3338 98.4716 19.3212L98.4725 19.3185H98.4722V19.3188ZM97.4924 22.5438L95.8129 21.9432L95.812 21.946C95.8075 21.9583 95.8141 21.9721 95.8265 21.9766L97.4609 22.5609C97.4732 22.5654 97.487 22.5588 97.4915 22.5465L97.4924 22.5438ZM95.718 21.6706C95.684 21.7659 95.7342 21.8717 95.8295 21.9057L97.5039 22.5044C97.5697 22.5278 97.6406 22.5113 97.6893 22.4674L96.2454 21.9511C96.1502 21.9171 96.1 21.811 96.1339 21.716C96.1444 21.6866 96.1619 21.6613 96.1838 21.6418L95.9536 21.5594C95.8583 21.5255 95.7525 21.5754 95.7186 21.6706H95.718ZM96.8264 21.8173L96.8273 21.8146C96.8318 21.8023 96.8252 21.7882 96.8129 21.784L96.1006 21.5291C96.0882 21.5249 96.0741 21.5312 96.0699 21.5438L96.069 21.5465L96.8267 21.8176H96.8264V21.8173ZM96.3299 21.1266C96.3467 21.1934 96.3422 21.2673 96.3242 21.3307C96.3025 21.4062 96.2596 21.4753 96.1967 21.5192L96.3789 21.5844C96.4315 21.5372 96.4705 21.4666 96.4934 21.3914C96.5072 21.3463 96.5153 21.2962 96.5162 21.2484L97.368 21.4984C97.0218 21.3746 96.6755 21.2508 96.3296 21.1269L96.3299 21.1266ZM97.5949 21.5787C97.4702 21.5294 97.3244 21.9174 97.4488 21.9667C97.4281 21.8934 97.4386 21.8125 97.4699 21.7404C97.496 21.6797 97.5396 21.6199 97.5949 21.579V21.5787ZM96.005 20.6809C95.9701 20.7783 96.0209 20.8862 96.118 20.9208L97.9255 21.567C97.9926 21.591 98.0448 21.567 98.0947 21.5219L96.5619 20.9737C96.4651 20.9391 96.4143 20.8312 96.4489 20.7338C96.4597 20.7038 96.4775 20.6782 96.4997 20.6581L96.2445 20.567C96.1478 20.5325 96.0399 20.5835 96.005 20.6809ZM96.3404 20.5045L96.6701 20.6223L96.9322 19.889L96.6028 19.7712L96.3404 20.5045ZM96.4498 19.4366C96.4149 19.534 96.466 19.6419 96.5628 19.6765L98.3703 20.3227C98.4374 20.3467 98.4897 20.3227 98.5396 20.2776L97.0067 19.7294C96.91 19.6948 96.8592 19.5869 96.8937 19.4895C96.9045 19.4595 96.9223 19.4339 96.9445 19.4138L96.6893 19.3227C96.5926 19.2882 96.4847 19.3393 96.4498 19.4366ZM97.1228 18.908C97.1396 18.9747 97.1354 19.0486 97.1173 19.112C97.0957 19.1878 97.0524 19.2566 96.9899 19.3005L97.1723 19.3657C97.2246 19.3182 97.264 19.2479 97.2869 19.1728C97.3004 19.1277 97.3091 19.0778 97.31 19.0297L98.1618 19.2794L97.123 18.908H97.1228ZM99.9564 21.4771L99.9392 21.5246C101.552 22.1413 103.067 23.1422 104.708 23.5647C105.199 23.6913 105.498 23.1512 105.175 22.8227C105.285 23.144 105.005 23.4334 104.612 23.3351C103.758 23.1211 102.697 22.7139 101.918 22.3316C101.278 22.0175 100.624 21.7296 99.9564 21.4771ZM98.1579 20.809L98.0758 21.0383C98.4734 21.1819 98.8927 21.2844 99.3081 21.3632L99.3408 21.2709C98.942 21.1471 98.539 20.9983 98.1579 20.8087V20.809ZM98.2673 20.5033C98.6652 20.6385 99.0691 20.7918 99.44 20.9941L99.4454 20.9791C99.0742 20.7768 98.6853 20.5902 98.2865 20.4492L98.2673 20.5036V20.5033ZM99.4334 21.57C99.4869 21.5892 99.5464 21.5609 99.5656 21.5074L99.5906 21.438C99.5698 21.4443 99.5473 21.4446 99.5254 21.4368C99.4719 21.4179 99.4439 21.3581 99.4629 21.3049L99.6053 20.9069C99.5753 20.9163 99.5497 20.9391 99.5383 20.9707L99.3712 21.438C99.3519 21.4915 99.3802 21.551 99.4337 21.57H99.4334ZM99.7129 21.67C99.7661 21.689 99.8259 21.6607 99.8449 21.6075L99.8698 21.5381C99.8491 21.5444 99.8265 21.5444 99.8049 21.5369C99.7514 21.518 99.7231 21.4582 99.7424 21.405L99.8848 21.007C99.8548 21.0163 99.8289 21.0392 99.8175 21.0707L99.6504 21.5381C99.6312 21.5913 99.6597 21.6511 99.7129 21.6703V21.67Z" fill="white"/>
<path d="M25.7547 3.17745V53.7581L19.209 57.1523V0L25.7547 3.17745Z" fill="white"/>
<path d="M33.2944 7.05638V49.5747L26.6738 53.1065V3.75L33.2944 7.05638Z" fill="white"/>
<path d="M5.74627 36.3261V48.027L0 51.0064V33.3203L5.74627 36.3261Z" fill="white"/>
<path d="M18.2379 42.7188V48.7154L5.74627 55.1923L5.31197 55.4177L0 52.4389V52.1754L5.74627 49.196L18.2379 42.7188Z" fill="white"/>
<path d="M18.2364 51.4062V57.5375L13.4757 60.0063L7.79492 56.8204L18.2364 51.4062Z" fill="white"/>
</g>
<defs>
<clipPath id="clip0_792_161">
<rect width="120.465" height="60" fill="white"/>
</clipPath>
</defs>
</svg>
